<svg id="mermaid-1611746592345" width="100%" xmlns="http://www.w3.org/2000/svg" height="100%" style="max-width:707px;" viewBox="-241 -10 707 1264"><style>#mermaid-1611746592345{font-family:"trebuchet ms",verdana,arial;font-size:16px;fill:#333;}#mermaid-1611746592345 .error-icon{fill:#552222;}#mermaid-1611746592345 .error-text{fill:#552222;stroke:#552222;}#mermaid-1611746592345 .edge-thickness-normal{stroke-width:2px;}#mermaid-1611746592345 .edge-thickness-thick{stroke-width:3.5px;}#mermaid-1611746592345 .edge-pattern-solid{stroke-dasharray:0;}#mermaid-1611746592345 .edge-pattern-dashed{stroke-dasharray:3;}#mermaid-1611746592345 .edge-pattern-dotted{stroke-dasharray:2;}#mermaid-1611746592345 .marker{fill:#333333;}#mermaid-1611746592345 .marker.cross{stroke:#333333;}#mermaid-1611746592345 svg{font-family:"trebuchet ms",verdana,arial;font-size:16px;}#mermaid-1611746592345 .actor{stroke:hsl(259.6261682243,59.7765363128%,87.9019607843%);fill:#ECECFF;}#mermaid-1611746592345 text.actor &gt; tspan{fill:black;stroke:none;}#mermaid-1611746592345 .actor-line{stroke:grey;}#mermaid-1611746592345 .messageLine0{stroke-width:1.5;stroke-dasharray:none;stroke:#333;}#mermaid-1611746592345 .messageLine1{stroke-width:1.5;stroke-dasharray:2,2;stroke:#333;}#mermaid-1611746592345 #arrowhead path{fill:#333;stroke:#333;}#mermaid-1611746592345 .sequenceNumber{fill:white;}#mermaid-1611746592345 #sequencenumber{fill:#333;}#mermaid-1611746592345 #crosshead path{fill:#333;stroke:#333;}#mermaid-1611746592345 .messageText{fill:#333;stroke:#333;}#mermaid-1611746592345 .labelBox{stroke:hsl(259.6261682243,59.7765363128%,87.9019607843%);fill:#ECECFF;}#mermaid-1611746592345 .labelText,#mermaid-1611746592345 .labelText &gt; tspan{fill:black;stroke:none;}#mermaid-1611746592345 .loopText,#mermaid-1611746592345 .loopText &gt; tspan{fill:black;stroke:none;}#mermaid-1611746592345 .loopLine{stroke-width:2px;stroke-dasharray:2,2;stroke:hsl(259.6261682243,59.7765363128%,87.9019607843%);fill:hsl(259.6261682243,59.7765363128%,87.9019607843%);}#mermaid-1611746592345 .note{stroke:#aaaa33;fill:#fff5ad;}#mermaid-1611746592345 .noteText,#mermaid-1611746592345 .noteText &gt; tspan{fill:black;stroke:none;}#mermaid-1611746592345 .activation0{fill:#f4f4f4;stroke:#666;}#mermaid-1611746592345 .activation1{fill:#f4f4f4;stroke:#666;}#mermaid-1611746592345 .activation2{fill:#f4f4f4;stroke:#666;}#mermaid-1611746592345:root{--mermaid-font-family:"trebuchet ms",verdana,arial;}#mermaid-1611746592345 sequence{fill:apa;}</style><g/><g><line id="actor508" x1="75" y1="5" x2="75" y2="1253" class="actor-line" stroke-width="0.5px" stroke="#999"/><rect x="0" y="0" fill="#eaeaea" stroke="#666" width="150" height="65" rx="3" ry="3" class="actor"/><text x="75" y="32.5" dominant-baseline="central" alignment-baseline="central" class="actor" style="text-anchor: middle; font-size: 14px; font-weight: 400; font-family: Open-Sans, sans-serif;"><tspan x="75" dy="0">Raspberry</tspan></text></g><g><line id="actor509" x1="341" y1="5" x2="341" y2="1253" class="actor-line" stroke-width="0.5px" stroke="#999"/><rect x="266" y="0" fill="#eaeaea" stroke="#666" width="150" height="65" rx="3" ry="3" class="actor"/><text x="341" y="32.5" dominant-baseline="central" alignment-baseline="central" class="actor" style="text-anchor: middle; font-size: 14px; font-weight: 400; font-family: Open-Sans, sans-serif;"><tspan x="341" dy="0">Server</tspan></text></g><defs><marker id="arrowhead" refX="5" refY="2" markerWidth="6" markerHeight="4" orient="auto"><path d="M 0,0 V 4 L6,2 Z"/></marker></defs><defs><marker id="crosshead" markerWidth="15" markerHeight="8" orient="auto" refX="16" refY="4"><path fill="black" stroke="#000000" stroke-width="1px" d="M 9,2 V 6 L16,4 Z" style="stroke-dasharray: 0, 0;"/><path fill="none" stroke="#000000" stroke-width="1px" d="M 0,1 L 6,7 M 6,1 L 0,7" style="stroke-dasharray: 0, 0;"/></marker></defs><defs><marker id="sequencenumber" refX="15" refY="15" markerWidth="60" markerHeight="40" orient="auto"><circle cx="15" cy="15" r="6"/></marker></defs><text x="208" y="170" text-anchor="middle" dominant-baseline="middle" alignment-baseline="middle" class="messageText" dy="1em" style="font-family: &quot;trebuchet ms&quot;, verdana, arial; font-size: 16px; font-weight: 400;">get live section</text><line x1="75" y1="201" x2="341" y2="201" class="messageLine0" stroke-width="2" stroke="none" marker-end="url(#arrowhead)" style="fill: none;"/><g><rect x="70" y="201" fill="#EDF2AE" stroke="#666" width="10" height="957" rx="0" ry="0" class="activation0"/></g><g><rect x="336" y="203" fill="#EDF2AE" stroke="#666" width="10" height="44" rx="0" ry="0" class="activation0"/></g><text x="208" y="216" text-anchor="middle" dominant-baseline="middle" alignment-baseline="middle" class="messageText" dy="1em" style="font-family: &quot;trebuchet ms&quot;, verdana, arial; font-size: 16px; font-weight: 400;">Return result</text><line x1="336" y1="247" x2="80" y2="247" class="messageLine1" stroke-width="2" stroke="none" marker-end="url(#arrowhead)" style="stroke-dasharray: 3, 3; fill: none;"/><g><rect x="-14.5" y="302" fill="#EDF2AE" stroke="#666" width="179" height="36" rx="0" ry="0" class="note"/><text x="75" y="307" text-anchor="middle" dominant-baseline="middle" alignment-baseline="middle" class="noteText" dy="1em" style="font-family: &quot;trebuchet ms&quot;, verdana, arial; font-size: 14px; font-weight: 400;"><tspan x="75">Set can send data to true</tspan></text></g><g><rect x="-77.5" y="348" fill="#EDF2AE" stroke="#666" width="305" height="36" rx="0" ry="0" class="note"/><text x="75" y="353" text-anchor="middle" dominant-baseline="middle" alignment-baseline="middle" class="noteText" dy="1em" style="font-family: &quot;trebuchet ms&quot;, verdana, arial; font-size: 14px; font-weight: 400;"><tspan x="75">Set live section ID to the recieved sections ID</tspan></text></g><g><rect x="-107" y="419" fill="#EDF2AE" stroke="#666" width="364" height="36" rx="0" ry="0" class="note"/><text x="75" y="424" text-anchor="middle" dominant-baseline="middle" alignment-baseline="middle" class="noteText" dy="1em" style="font-family: &quot;trebuchet ms&quot;, verdana, arial; font-size: 14px; font-weight: 400;"><tspan x="75">Write message to console: "Can't connect to the sever"</tspan></text></g><g><line x1="-117" y1="257" x2="267" y2="257" class="loopLine"/><line x1="267" y1="257" x2="267" y2="465" class="loopLine"/><line x1="-117" y1="465" x2="267" y2="465" class="loopLine"/><line x1="-117" y1="257" x2="-117" y2="465" class="loopLine"/><line x1="-117" y1="399" x2="267" y2="399" class="loopLine" style="stroke-dasharray: 3, 3;"/><polygon points="-117,257 -67,257 -67,270 -75.4,277 -117,277" class="labelBox"/><text x="-92" y="270" text-anchor="middle" dominant-baseline="middle" alignment-baseline="middle" class="labelText" style="font-family: &quot;trebuchet ms&quot;, verdana, arial; font-size: 16px; font-weight: 400;">alt</text><text x="100" y="275" text-anchor="middle" class="loopText" style="font-family: &quot;trebuchet ms&quot;, verdana, arial; font-size: 16px; font-weight: 400;"><tspan x="100">[Result is ok]</tspan></text></g><text x="211" y="615" text-anchor="middle" dominant-baseline="middle" alignment-baseline="middle" class="messageText" dy="1em" style="font-family: &quot;trebuchet ms&quot;, verdana, arial; font-size: 16px; font-weight: 400;">Post buffer to live section</text><line x1="80" y1="646" x2="341" y2="646" class="messageLine0" stroke-width="2" stroke="none" marker-end="url(#arrowhead)" style="fill: none;"/><g><rect x="336" y="648" fill="#EDF2AE" stroke="#666" width="10" height="44" rx="0" ry="0" class="activation0"/></g><text x="208" y="661" text-anchor="middle" dominant-baseline="middle" alignment-baseline="middle" class="messageText" dy="1em" style="font-family: &quot;trebuchet ms&quot;, verdana, arial; font-size: 16px; font-weight: 400;">Return result</text><line x1="336" y1="692" x2="80" y2="692" class="messageLine1" stroke-width="2" stroke="none" marker-end="url(#arrowhead)" style="stroke-dasharray: 3, 3; fill: none;"/><g><rect x="-44" y="747" fill="#EDF2AE" stroke="#666" width="238" height="36" rx="0" ry="0" class="note"/><text x="75" y="752" text-anchor="middle" dominant-baseline="middle" alignment-baseline="middle" class="noteText" dy="1em" style="font-family: &quot;trebuchet ms&quot;, verdana, arial; font-size: 14px; font-weight: 400;"><tspan x="75">Set data sending to not successfull</tspan></text></g><g><rect x="-107" y="818" fill="#EDF2AE" stroke="#666" width="364" height="36" rx="0" ry="0" class="note"/><text x="75" y="823" text-anchor="middle" dominant-baseline="middle" alignment-baseline="middle" class="noteText" dy="1em" style="font-family: &quot;trebuchet ms&quot;, verdana, arial; font-size: 14px; font-weight: 400;"><tspan x="75">Write message to console: "Can't connect to the sever"</tspan></text></g><g><line x1="-117" y1="702" x2="267" y2="702" class="loopLine"/><line x1="267" y1="702" x2="267" y2="864" class="loopLine"/><line x1="-117" y1="864" x2="267" y2="864" class="loopLine"/><line x1="-117" y1="702" x2="-117" y2="864" class="loopLine"/><line x1="-117" y1="798" x2="267" y2="798" class="loopLine" style="stroke-dasharray: 3, 3;"/><polygon points="-117,702 -67,702 -67,715 -75.4,722 -117,722" class="labelBox"/><text x="-92" y="715" text-anchor="middle" dominant-baseline="middle" alignment-baseline="middle" class="labelText" style="font-family: &quot;trebuchet ms&quot;, verdana, arial; font-size: 16px; font-weight: 400;">alt</text><text x="100" y="720" text-anchor="middle" class="loopText" style="font-family: &quot;trebuchet ms&quot;, verdana, arial; font-size: 16px; font-weight: 400;"><tspan x="100">[Result is ok]</tspan></text></g><g><rect x="-141" y="919" fill="#EDF2AE" stroke="#666" width="432" height="36" rx="0" ry="0" class="note"/><text x="75" y="924" text-anchor="middle" dominant-baseline="middle" alignment-baseline="middle" class="noteText" dy="1em" style="font-family: &quot;trebuchet ms&quot;, verdana, arial; font-size: 14px; font-weight: 400;"><tspan x="75">Write message to console: "An error occurred while sending data"</tspan></text></g><g><line x1="-151" y1="874" x2="301" y2="874" class="loopLine"/><line x1="301" y1="874" x2="301" y2="965" class="loopLine"/><line x1="-151" y1="965" x2="301" y2="965" class="loopLine"/><line x1="-151" y1="874" x2="-151" y2="965" class="loopLine"/><polygon points="-151,874 -101,874 -101,887 -109.4,894 -151,894" class="labelBox"/><text x="-126" y="887" text-anchor="middle" dominant-baseline="middle" alignment-baseline="middle" class="labelText" style="font-family: &quot;trebuchet ms&quot;, verdana, arial; font-size: 16px; font-weight: 400;">opt</text><text x="100" y="892" text-anchor="middle" class="loopText" style="font-family: &quot;trebuchet ms&quot;, verdana, arial; font-size: 16px; font-weight: 400;"><tspan x="100">[Data couldn't sent]</tspan></text></g><g><line x1="-161" y1="565" x2="356" y2="565" class="loopLine"/><line x1="356" y1="565" x2="356" y2="975" class="loopLine"/><line x1="-161" y1="975" x2="356" y2="975" class="loopLine"/><line x1="-161" y1="565" x2="-161" y2="975" class="loopLine"/><polygon points="-161,565 -111,565 -111,578 -119.4,585 -161,585" class="labelBox"/><text x="-136" y="578" text-anchor="middle" dominant-baseline="middle" alignment-baseline="middle" class="labelText" style="font-family: &quot;trebuchet ms&quot;, verdana, arial; font-size: 16px; font-weight: 400;">loop</text><text x="122.5" y="583" text-anchor="middle" class="loopText" style="font-family: &quot;trebuchet ms&quot;, verdana, arial; font-size: 16px; font-weight: 400;"><tspan x="122.5">[while data sending is successfull]</tspan></text></g><g><rect x="-93.5" y="985" fill="#EDF2AE" stroke="#666" width="337" height="36" rx="0" ry="0" class="note"/><text x="75" y="990" text-anchor="middle" dominant-baseline="middle" alignment-baseline="middle" class="noteText" dy="1em" style="font-family: &quot;trebuchet ms&quot;, verdana, arial; font-size: 14px; font-weight: 400;"><tspan x="75">Write message to console: "Data sent successfully"</tspan></text></g><g><rect x="0" y="1031" fill="#EDF2AE" stroke="#666" width="150" height="36" rx="0" ry="0" class="note"/><text x="75" y="1036" text-anchor="middle" dominant-baseline="middle" alignment-baseline="middle" class="noteText" dy="1em" style="font-family: &quot;trebuchet ms&quot;, verdana, arial; font-size: 14px; font-weight: 400;"><tspan x="75">Clear buffer</tspan></text></g><g><rect x="-15.5" y="1102" fill="#EDF2AE" stroke="#666" width="181" height="36" rx="0" ry="0" class="note"/><text x="75" y="1107" text-anchor="middle" dominant-baseline="middle" alignment-baseline="middle" class="noteText" dy="1em" style="font-family: &quot;trebuchet ms&quot;, verdana, arial; font-size: 14px; font-weight: 400;"><tspan x="75">Add actual data to buffer</tspan></text></g><g><line x1="-171" y1="520" x2="366" y2="520" class="loopLine"/><line x1="366" y1="520" x2="366" y2="1148" class="loopLine"/><line x1="-171" y1="1148" x2="366" y2="1148" class="loopLine"/><line x1="-171" y1="520" x2="-171" y2="1148" class="loopLine"/><line x1="-171" y1="1082" x2="366" y2="1082" class="loopLine" style="stroke-dasharray: 3, 3;"/><polygon points="-171,520 -121,520 -121,533 -129.4,540 -171,540" class="labelBox"/><text x="-146" y="533" text-anchor="middle" dominant-baseline="middle" alignment-baseline="middle" class="labelText" style="font-family: &quot;trebuchet ms&quot;, verdana, arial; font-size: 16px; font-weight: 400;">alt</text><text x="122.5" y="538" text-anchor="middle" class="loopText" style="font-family: &quot;trebuchet ms&quot;, verdana, arial; font-size: 16px; font-weight: 400;"><tspan x="122.5">[buffer size is equals to the maximum buffer size]</tspan></text></g><g><line x1="-181" y1="120" x2="376" y2="120" class="loopLine"/><line x1="376" y1="120" x2="376" y2="1158" class="loopLine"/><line x1="-181" y1="1158" x2="376" y2="1158" class="loopLine"/><line x1="-181" y1="120" x2="-181" y2="1158" class="loopLine"/><line x1="-181" y1="480" x2="376" y2="480" class="loopLine" style="stroke-dasharray: 3, 3;"/><polygon points="-181,120 -131,120 -131,133 -139.4,140 -181,140" class="labelBox"/><text x="-156" y="133" text-anchor="middle" dominant-baseline="middle" alignment-baseline="middle" class="labelText" style="font-family: &quot;trebuchet ms&quot;, verdana, arial; font-size: 16px; font-weight: 400;">alt</text><text x="122.5" y="138" text-anchor="middle" class="loopText" style="font-family: &quot;trebuchet ms&quot;, verdana, arial; font-size: 16px; font-weight: 400;"><tspan x="122.5">[can't send data]</tspan></text><text x="97.5" y="498" text-anchor="middle" class="loopText" style="font-family: &quot;trebuchet ms&quot;, verdana, arial; font-size: 16px; font-weight: 400;">[can send data]</text></g><g><line x1="-191" y1="75" x2="386" y2="75" class="loopLine"/><line x1="386" y1="75" x2="386" y2="1168" class="loopLine"/><line x1="-191" y1="1168" x2="386" y2="1168" class="loopLine"/><line x1="-191" y1="75" x2="-191" y2="1168" class="loopLine"/><polygon points="-191,75 -141,75 -141,88 -149.4,95 -191,95" class="labelBox"/><text x="-166" y="88" text-anchor="middle" dominant-baseline="middle" alignment-baseline="middle" class="labelText" style="font-family: &quot;trebuchet ms&quot;, verdana, arial; font-size: 16px; font-weight: 400;">loop</text><text x="122.5" y="93" text-anchor="middle" class="loopText" style="font-family: &quot;trebuchet ms&quot;, verdana, arial; font-size: 16px; font-weight: 400;"><tspan x="122.5">[infinite loop]</tspan></text></g><g><rect x="0" y="1188" fill="#eaeaea" stroke="#666" width="150" height="65" rx="3" ry="3" class="actor"/><text x="75" y="1220.5" dominant-baseline="central" alignment-baseline="central" class="actor" style="text-anchor: middle; font-size: 14px; font-weight: 400; font-family: Open-Sans, sans-serif;"><tspan x="75" dy="0">Raspberry</tspan></text></g><g><rect x="266" y="1188" fill="#eaeaea" stroke="#666" width="150" height="65" rx="3" ry="3" class="actor"/><text x="341" y="1220.5" dominant-baseline="central" alignment-baseline="central" class="actor" style="text-anchor: middle; font-size: 14px; font-weight: 400; font-family: Open-Sans, sans-serif;"><tspan x="341" dy="0">Server</tspan></text></g></svg>